<svg width="115" height="90" viewBox="0 0 115 90" fill="none" xmlns="http://www.w3.org/2000/svg ">
<path fill-rule="evenodd" clip-rule="evenodd" d="M37.211 1.32517C34.062 2.64917 30.445 7.52217 27.31 14.6652C25.773 18.1672 24.531 19.3462 20.59 21.0412C17.931 22.1852 14.433 24.6262 12.817 26.4672C7.42203 32.6112 6.88003 40.8682 11.871 40.8682C14.961 40.8682 17.77 42.7252 17.77 44.7682C17.77 46.1232 16.13 47.1522 11.45 48.7332C7.97303 49.9072 4.17503 50.8682 3.00903 50.8682C0.438034 50.8682 -0.857966 52.6402 0.627034 54.1252C1.38503 54.8832 3.66803 54.9152 8.24003 54.2322C11.831 53.6952 14.77 53.4092 14.77 53.5972C14.77 53.7852 14.056 55.0282 13.184 56.3592C10.14 61.0052 12.946 62.0072 20.241 58.8802C22.792 57.7872 29.082 56.1762 34.22 55.3002C42.81 53.8362 44.264 53.8392 52.297 55.3452C63.694 57.4802 72.465 61.0652 80.096 66.7052C85.158 70.4482 87.33 71.3972 92.157 71.9762C99.838 72.8982 102.683 75.1672 105.943 82.9702C108.13 88.2032 109.079 89.4252 111.158 89.6812C115.051 90.1612 115.36 86.5912 112.294 76.5382C110.247 69.8282 108.993 67.4052 106.597 65.5302L103.525 63.1262L106.605 61.3062C108.299 60.3062 110.234 58.1622 110.904 56.5432C111.968 53.9772 111.884 53.4252 110.256 52.2342C109.228 51.4832 106.915 50.8682 105.115 50.8682C102.531 50.8682 101.361 50.1672 99.556 47.5382C98.299 45.7062 94.349 41.6102 90.779 38.4352C79.525 28.4282 74.866 26.8622 53.781 26.0012C40.901 25.4752 38.242 25.1062 37.996 23.8142C37.832 22.9602 40.03 19.5972 42.879 16.3412C48.145 10.3232 50.77 5.53217 50.77 1.93817C50.77 0.189175 50.119 -0.0488253 45.483 0.00717472C42.575 0.0411747 38.852 0.634175 37.211 1.32517Z" fill="black"/>
</svg>
